<svg width="12" height="22" viewBox="0 0 12 22" fill="none" xmlns="http://www.w3.org/2000/svg">
<path d="M12 11.0282C12 11.222 11.9691 11.3996 11.9072 11.561C11.8454 11.7225 11.7371 11.8839 11.5825 12.0454L2.39798 21.6353C2.15059 21.8936 1.81815 22.0147 1.40067 21.9986C0.983193 21.9824 0.650756 21.8452 0.403361 21.5869C0.0941177 21.264 -0.0373109 20.9169 0.00907563 20.5456C0.0554622 20.1742 0.202353 19.8433 0.449748 19.5527L8.61378 11.0282L0.449748 2.50383C0.202353 2.24552 0.0631933 1.89841 0.0322689 1.4625C0.00134454 1.02659 0.140504 0.679483 0.449748 0.421167C0.697143 0.0982723 1.02185 -0.0389576 1.42387 0.00947571C1.82588 0.057909 2.16605 0.211285 2.44437 0.469601L11.5825 10.0111C11.7371 10.1726 11.8454 10.334 11.9072 10.4955C11.9691 10.6569 12 10.8345 12 11.0282Z" fill="#242833"/>
</svg>
