<svg width="40" height="40" viewBox="0 0 40 40" fill="none" xmlns="http://www.w3.org/2000/svg">
<path d="M29.9999 16.6667C29.9999 16.2246 29.8244 15.8007 29.5118 15.4882C29.1992 15.1756 28.7753 15 28.3333 15H9.01661L12.8499 11.1833C13.1638 10.8695 13.3401 10.4438 13.3401 10C13.3401 9.55616 13.1638 9.13051 12.8499 8.81667C12.5361 8.50283 12.1105 8.32651 11.6666 8.32651C11.2228 8.32651 10.7971 8.50283 10.4833 8.81667L3.81661 15.4833C3.58535 15.7177 3.42869 16.0153 3.3664 16.3386C3.30411 16.662 3.33898 16.9965 3.46661 17.3C3.59165 17.6044 3.80398 17.8649 4.07684 18.0488C4.34971 18.2327 4.67091 18.3317 4.99995 18.3333H28.3333C28.7753 18.3333 29.1992 18.1577 29.5118 17.8452C29.8244 17.5326 29.9999 17.1087 29.9999 16.6667ZM36.5333 22.7C36.4082 22.3956 36.1959 22.1351 35.923 21.9512C35.6502 21.7673 35.329 21.6683 34.9999 21.6667H11.6666C11.2246 21.6667 10.8007 21.8423 10.4881 22.1548C10.1755 22.4674 9.99995 22.8913 9.99995 23.3333C9.99995 23.7754 10.1755 24.1993 10.4881 24.5118C10.8007 24.8244 11.2246 25 11.6666 25H30.9833L27.1499 28.8167C26.9937 28.9716 26.8697 29.1559 26.7851 29.359C26.7005 29.5621 26.6569 29.78 26.6569 30C26.6569 30.22 26.7005 30.4379 26.7851 30.641C26.8697 30.8441 26.9937 31.0284 27.1499 31.1833C27.3049 31.3395 27.4892 31.4635 27.6923 31.5482C27.8954 31.6328 28.1133 31.6763 28.3333 31.6763C28.5533 31.6763 28.7711 31.6328 28.9742 31.5482C29.1773 31.4635 29.3617 31.3395 29.5166 31.1833L36.1833 24.5167C36.4145 24.2823 36.5712 23.9847 36.6335 23.6614C36.6958 23.338 36.6609 23.0035 36.5333 22.7Z" fill="#363B47"/>
</svg>
